<?xml version="1.0" encoding="utf-8"?>
<!-- Generator: Adobe Illustrator 27.5.0, SVG Export Plug-In . SVG Version: 6.00 Build 0)  -->
<svg version="1.1" xmlns="http://www.w3.org/2000/svg" xmlns:xlink="http://www.w3.org/1999/xlink" x="0px" y="0px"
	 viewBox="0 0 500 500" style="enable-background:new 0 0 500 500;" xml:space="preserve">
<g id="Floor">
	<path style="fill:#F5F5F5;" d="M408.378,255.35c-88.042-50.831-230.321-50.831-317.791,0.001
		C3.111,306.187,3.575,388.6,91.617,439.431c88.048,50.834,230.327,50.834,317.802-0.002
		C496.889,388.598,496.425,306.185,408.378,255.35z"/>
</g>
<g id="Sea">
	<g>
		<g>
			<path style="fill:#BA68C8;" d="M393.946,436.142c-6.457-1.065-12.361-3.146-17.118-5.892c-4.968-2.868-8.687-6.463-10.485-10.39
				c-3.294-7.192-0.626-15.311-6.936-21.801c-1.27-1.304-2.801-2.45-4.544-3.456c-9.933-5.735-26.761-6.951-41.469-7.192
				c-15.924-0.266-34.063-0.833-45.03-7.166c-0.934-0.539-1.816-1.12-2.641-1.747c-9.735-7.413-6.872-17.835-3.571-26.93
				c3.31-9.09,6.098-19.536-3.77-26.901c-0.778-0.581-1.607-1.122-2.481-1.627c-10.758-6.212-28.399-6.858-43.939-7.694
				c-12.601-0.674-26.863-2.672-35.336-7.564c-2.831-1.634-5.015-3.591-6.277-5.93c-3.606-6.692,2.103-14.08-0.873-20.878
				c-1.294-2.959-4.078-5.481-7.755-7.604c-5.853-3.379-13.969-5.745-21.949-7.245c-12.994-2.442-27.017-3.495-38.634-7.663
				c-2.24-0.805-4.363-1.786-6.283-2.894c-0.768-0.444-1.492-0.913-2.19-1.395c-0.693,0.392-1.392,0.778-2.077,1.177
				c-7.141,4.15-13.685,8.513-19.654,13.05c0.326,0.204,0.649,0.409,0.989,0.605c1.919,1.108,4.042,2.089,6.283,2.894
				c11.618,4.168,25.641,5.22,38.634,7.663c7.98,1.5,16.096,3.866,21.948,7.245c3.677,2.123,6.461,4.646,7.755,7.604
				c2.976,6.797-2.733,14.186,0.873,20.878c1.262,2.339,3.446,4.295,6.277,5.93c8.474,4.892,22.735,6.89,35.336,7.564
				c15.54,0.836,33.181,1.483,43.939,7.694c0.874,0.505,1.703,1.046,2.481,1.627c9.868,7.365,7.08,17.811,3.77,26.901
				c-4.305,11.86-4.224,25.511,4.036,35.792c5.527,6.88,14.067,11.249,22.881,11.706c5.231,0.271,10.434-0.766,15.663-1.076
				c5.229-0.311,10.783,0.205,15.085,3.195c3.155,2.192,5.372,5.536,8.535,7.717c6.065,4.181,14.146,3.283,21.441,2.265
				c7.295-1.018,15.423-1.793,21.371,2.552c4.625,3.379,6.796,9.072,9.794,13.953c5.49,8.937,14.153,9.345,23.784,9.312
				c2.281-0.008,4.592-0.123,6.903-0.352c7.182-3.258,14.103-6.801,20.707-10.639c1.816-1.055,3.58-2.129,5.32-3.211
				C407.949,437.236,400.709,437.259,393.946,436.142z"/>
			<path style="fill:#BA68C8;" d="M48.451,289.379c11.553,4.072,25.433,5.132,38.306,7.551c7.98,1.5,16.096,3.866,21.948,7.245
				c3.677,2.123,6.461,4.646,7.755,7.604c2.976,6.797-2.734,14.186,0.873,20.878c1.262,2.339,3.446,4.295,6.277,5.93
				c8.474,4.892,22.735,6.89,35.336,7.564c15.54,0.836,33.181,1.482,43.939,7.694c0.874,0.504,1.703,1.046,2.481,1.627
				c9.868,7.365,7.08,17.811,3.77,26.901c-4.305,11.86-4.224,25.511,4.036,35.792c5.527,6.881,14.067,11.25,22.881,11.706
				c5.231,0.271,10.434-0.766,15.663-1.076c5.229-0.311,10.783,0.205,15.085,3.195c3.155,2.193,5.372,5.536,8.535,7.717
				c6.064,4.181,14.145,3.283,21.44,2.265c7.295-1.019,15.423-1.794,21.371,2.552c4.625,3.38,6.796,9.072,9.794,13.953
				c3.091,5.032,7.189,7.36,11.899,8.427c17.188-4.306,33.626-9.919,48.871-16.835c-2.311,0.229-4.622,0.344-6.903,0.352
				c-9.631,0.033-18.294-0.375-23.784-9.312c-2.999-4.881-5.169-10.573-9.794-13.953c-5.948-4.345-14.076-3.57-21.371-2.552
				c-7.295,1.019-15.376,1.916-21.441-2.265c-3.163-2.181-5.38-5.525-8.535-7.717c-4.302-2.989-9.855-3.505-15.085-3.195
				c-5.229,0.311-10.432,1.347-15.663,1.076c-8.814-0.457-17.354-4.825-22.881-11.706c-8.26-10.282-8.341-23.932-4.036-35.792
				c3.31-9.09,6.098-19.537-3.77-26.901c-0.778-0.581-1.607-1.122-2.481-1.627c-10.758-6.211-28.399-6.858-43.939-7.694
				c-12.601-0.674-26.863-2.672-35.336-7.564c-2.831-1.634-5.015-3.591-6.277-5.93c-3.606-6.692,2.104-14.08-0.873-20.878
				c-1.294-2.959-4.078-5.482-7.755-7.604c-5.852-3.379-13.968-5.745-21.948-7.245c-12.994-2.442-27.017-3.495-38.634-7.663
				c-2.241-0.805-4.364-1.786-6.283-2.894c-0.339-0.196-0.662-0.401-0.989-0.605C62.181,275.052,54.684,282.08,48.451,289.379z"/>
			<path style="fill:#BA68C8;" d="M327.942,458.477c-2.999-4.881-5.169-10.573-9.794-13.953c-5.947-4.345-14.076-3.57-21.371-2.552
				c-7.295,1.018-15.376,1.916-21.44-2.265c-3.163-2.181-5.38-5.525-8.535-7.717c-4.302-2.989-9.855-3.505-15.085-3.195
				c-5.229,0.311-10.432,1.347-15.663,1.076c-8.814-0.457-17.354-4.825-22.881-11.706c-8.26-10.282-8.341-23.932-4.036-35.792
				c3.31-9.09,6.098-19.537-3.77-26.901c-0.778-0.581-1.607-1.123-2.481-1.627c-10.758-6.212-28.399-6.858-43.939-7.694
				c-12.601-0.674-26.863-2.672-35.336-7.564c-2.831-1.635-5.015-3.591-6.277-5.93c-3.606-6.692,2.103-14.08-0.873-20.878
				c-1.294-2.959-4.078-5.481-7.755-7.604c-5.852-3.379-13.969-5.745-21.948-7.245c-12.873-2.419-26.752-3.479-38.306-7.551
				C6.854,338.091,21.299,398.833,91.617,439.431c67.29,38.85,166.254,48.006,248.224,27.473
				C335.131,465.836,331.034,463.509,327.942,458.477z"/>
		</g>
		<g>
			<path style="opacity:0.5;fill:#FFFFFF;" d="M393.946,436.142c-6.457-1.065-12.361-3.146-17.118-5.892
				c-4.968-2.868-8.687-6.463-10.485-10.39c-3.294-7.192-0.626-15.311-6.936-21.801c-1.27-1.304-2.801-2.45-4.544-3.456
				c-9.933-5.735-26.761-6.951-41.469-7.192c-15.924-0.266-34.063-0.833-45.03-7.166c-0.934-0.539-1.816-1.12-2.641-1.747
				c-9.735-7.413-6.872-17.835-3.571-26.93c3.31-9.09,6.098-19.536-3.77-26.901c-0.778-0.581-1.607-1.122-2.481-1.627
				c-10.758-6.212-28.399-6.858-43.939-7.694c-12.601-0.674-26.863-2.672-35.336-7.564c-2.831-1.634-5.015-3.591-6.277-5.93
				c-3.606-6.692,2.103-14.08-0.873-20.878c-1.294-2.959-4.078-5.481-7.755-7.604c-5.853-3.379-13.969-5.745-21.949-7.245
				c-12.994-2.442-27.017-3.495-38.634-7.663c-2.24-0.805-4.363-1.786-6.283-2.894c-0.768-0.444-1.492-0.913-2.19-1.395
				c-0.693,0.392-1.392,0.778-2.077,1.177c-7.141,4.15-13.685,8.513-19.654,13.05c0.326,0.204,0.649,0.409,0.989,0.605
				c1.919,1.108,4.042,2.089,6.283,2.894c11.618,4.168,25.641,5.22,38.634,7.663c7.98,1.5,16.096,3.866,21.948,7.245
				c3.677,2.123,6.461,4.646,7.755,7.604c2.976,6.797-2.733,14.186,0.873,20.878c1.262,2.339,3.446,4.295,6.277,5.93
				c8.474,4.892,22.735,6.89,35.336,7.564c15.54,0.836,33.181,1.483,43.939,7.694c0.874,0.505,1.703,1.046,2.481,1.627
				c9.868,7.365,7.08,17.811,3.77,26.901c-4.305,11.86-4.224,25.511,4.036,35.792c5.527,6.88,14.067,11.249,22.881,11.706
				c5.231,0.271,10.434-0.766,15.663-1.076c5.229-0.311,10.783,0.205,15.085,3.195c3.155,2.192,5.372,5.536,8.535,7.717
				c6.065,4.181,14.146,3.283,21.441,2.265c7.295-1.018,15.423-1.793,21.371,2.552c4.625,3.379,6.796,9.072,9.794,13.953
				c5.49,8.937,14.153,9.345,23.784,9.312c2.281-0.008,4.592-0.123,6.903-0.352c7.182-3.258,14.103-6.801,20.707-10.639
				c1.816-1.055,3.58-2.129,5.32-3.211C407.949,437.236,400.709,437.259,393.946,436.142z"/>
			<path style="opacity:0.3;fill:#FFFFFF;" d="M48.451,289.379c11.553,4.072,25.433,5.132,38.306,7.551
				c7.98,1.5,16.096,3.866,21.948,7.245c3.677,2.123,6.461,4.646,7.755,7.604c2.976,6.797-2.734,14.186,0.873,20.878
				c1.262,2.339,3.446,4.295,6.277,5.93c8.474,4.892,22.735,6.89,35.336,7.564c15.54,0.836,33.181,1.482,43.939,7.694
				c0.874,0.504,1.703,1.046,2.481,1.627c9.868,7.365,7.08,17.811,3.77,26.901c-4.305,11.86-4.224,25.511,4.036,35.792
				c5.527,6.881,14.067,11.25,22.881,11.706c5.231,0.271,10.434-0.766,15.663-1.076c5.229-0.311,10.783,0.205,15.085,3.195
				c3.155,2.193,5.372,5.536,8.535,7.717c6.064,4.181,14.145,3.283,21.44,2.265c7.295-1.019,15.423-1.794,21.371,2.552
				c4.625,3.38,6.796,9.072,9.794,13.953c3.091,5.032,7.189,7.36,11.899,8.427c17.188-4.306,33.626-9.919,48.871-16.835
				c-2.311,0.229-4.622,0.344-6.903,0.352c-9.631,0.033-18.294-0.375-23.784-9.312c-2.999-4.881-5.169-10.573-9.794-13.953
				c-5.948-4.345-14.076-3.57-21.371-2.552c-7.295,1.019-15.376,1.916-21.441-2.265c-3.163-2.181-5.38-5.525-8.535-7.717
				c-4.302-2.989-9.855-3.505-15.085-3.195c-5.229,0.311-10.432,1.347-15.663,1.076c-8.814-0.457-17.354-4.825-22.881-11.706
				c-8.26-10.282-8.341-23.932-4.036-35.792c3.31-9.09,6.098-19.537-3.77-26.901c-0.778-0.581-1.607-1.122-2.481-1.627
				c-10.758-6.211-28.399-6.858-43.939-7.694c-12.601-0.674-26.863-2.672-35.336-7.564c-2.831-1.634-5.015-3.591-6.277-5.93
				c-3.606-6.692,2.104-14.08-0.873-20.878c-1.294-2.959-4.078-5.482-7.755-7.604c-5.852-3.379-13.968-5.745-21.948-7.245
				c-12.994-2.442-27.017-3.495-38.634-7.663c-2.241-0.805-4.364-1.786-6.283-2.894c-0.339-0.196-0.662-0.401-0.989-0.605
				C62.181,275.052,54.684,282.08,48.451,289.379z"/>
			<path style="opacity:0.1;fill:#FFFFFF;" d="M327.942,458.477c-2.999-4.881-5.169-10.573-9.794-13.953
				c-5.947-4.345-14.076-3.57-21.371-2.552c-7.295,1.018-15.376,1.916-21.44-2.265c-3.163-2.181-5.38-5.525-8.535-7.717
				c-4.302-2.989-9.855-3.505-15.085-3.195c-5.229,0.311-10.432,1.347-15.663,1.076c-8.814-0.457-17.354-4.825-22.881-11.706
				c-8.26-10.282-8.341-23.932-4.036-35.792c3.31-9.09,6.098-19.537-3.77-26.901c-0.778-0.581-1.607-1.123-2.481-1.627
				c-10.758-6.212-28.399-6.858-43.939-7.694c-12.601-0.674-26.863-2.672-35.336-7.564c-2.831-1.635-5.015-3.591-6.277-5.93
				c-3.606-6.692,2.103-14.08-0.873-20.878c-1.294-2.959-4.078-5.481-7.755-7.604c-5.852-3.379-13.969-5.745-21.948-7.245
				c-12.873-2.419-26.752-3.479-38.306-7.551C6.854,338.091,21.299,398.833,91.617,439.431
				c67.29,38.85,166.254,48.006,248.224,27.473C335.131,465.836,331.034,463.509,327.942,458.477z"/>
		</g>
		<g style="opacity:0.7;">
			<path style="fill:#FFFFFF;" d="M146.542,294.412c2.976,6.797-2.733,14.186,0.873,20.878c1.262,2.339,3.446,4.295,6.277,5.93
				c0.397,0.229,0.818,0.446,1.24,0.662c-0.013-0.011-0.028-0.02-0.041-0.031c-3.713-3.039-6.515-7.592-6.234-12.382
				c0.165-2.805,1.352-5.465,1.596-8.263c0.371-4.27-1.555-8.541-4.564-11.592c-3.009-3.052-7.005-4.981-11.131-6.139
				c-2.433-0.682-4.922-1.111-7.43-1.438c4.317,1.289,8.354,2.863,11.659,4.771C142.464,288.931,145.248,291.454,146.542,294.412z"
				/>
			<path style="fill:#FFFFFF;" d="M243.255,400.798c2.476,3.082,5.559,5.655,8.997,7.603c-2.735-1.949-5.194-4.285-7.225-6.959
				c-4.405-5.801-6.835-13.074-6.801-20.358c0.035-7.558,2.619-15.076,3.049-22.53c-0.559,2.186-1.292,4.355-2.056,6.452
				C234.913,376.866,234.995,390.516,243.255,400.798z"/>
			<path style="fill:#FFFFFF;" d="M326.859,424.604c5.24-0.732,10.905-1.326,15.887,0c-2.213-0.989-4.671-1.542-7.085-1.733
				c-4.885-0.387-9.773,0.455-14.667,0.707c-5.197,0.267-10.425-0.147-15.52-1.204C311.533,426.512,319.586,425.62,326.859,424.604z
				"/>
			<path style="fill:#FFFFFF;" d="M220.908,332.06c-4.924-2.243-10.315-3.578-15.705-4.193c-7.95-0.908-15.974-0.385-23.957,0.33
				c2.621,0.257,5.235,0.451,7.782,0.587C199.629,329.354,211.204,329.839,220.908,332.06z"/>
			<path style="fill:#FFFFFF;" d="M108.705,304.176c3.677,2.123,6.461,4.646,7.755,7.604c2.976,6.797-2.734,14.186,0.873,20.878
				c1.262,2.339,3.446,4.295,6.277,5.93c3.209,1.853,7.25,3.289,11.715,4.397c-1.216-0.499-2.433-0.998-3.649-1.497
				c-2.745-1.126-5.52-2.268-7.919-4.013c-2.399-1.745-4.423-4.181-5.079-7.074c-1.135-5.007,1.957-10.059,1.743-15.188
				c-0.189-4.528-3.007-8.645-6.649-11.342c-3.642-2.697-8.041-4.161-12.429-5.29c-7.797-2.006-15.832-3.07-23.882-3.201
				c3.125,0.48,6.239,0.977,9.296,1.551C94.736,298.431,102.853,300.797,108.705,304.176z"/>
			<path style="fill:#FFFFFF;" d="M331.944,460.267c-3.98-4.205-5.623-10.244-9.742-14.313c-3.172-3.134-7.728-4.747-12.168-4.506
				c2.928,0.403,5.702,1.314,8.114,3.076c4.625,3.38,6.796,9.072,9.794,13.953c3.091,5.032,7.189,7.36,11.899,8.427
				c1.788-0.448,3.563-0.919,5.334-1.395C340.294,465.759,335.31,463.824,331.944,460.267z"/>
			<path style="fill:#FFFFFF;" d="M266.801,431.99c3.155,2.193,5.372,5.536,8.535,7.717c2.51,1.731,5.369,2.583,8.372,2.925
				c-1.952-0.563-3.813-1.372-5.517-2.537c-3.178-2.174-5.504-5.387-8.532-7.765c-5.055-3.97-12.054-5.225-18.226-3.513
				c0.094-0.006,0.188-0.016,0.283-0.021C256.946,428.485,262.5,429.001,266.801,431.99z"/>
		</g>
	</g>
</g>
<g id="Trees">
	<g>
		<g>
			<path style="fill:#455A64;" d="M365.993,110.466l3.459-3.182l3.238,2.814c7.772,9.275,7.425,125.821-0.327,152.534l0,0
				c-0.411,1.386-1.736,2.507-3.878,3.034c-4.284,1.054-10.214-0.667-13.245-3.844c-1.672-1.752-2.106-3.579-1.446-5.044
				C356.979,245.837,373.731,158.37,365.993,110.466z"/>
			<path style="opacity:0.1;fill:#FFFFFF;" d="M365.993,110.466l3.459-3.182l3.238,2.814c7.772,9.275,7.425,125.821-0.327,152.534
				l0,0c-0.411,1.386-1.736,2.507-3.878,3.034c-4.284,1.054-10.214-0.667-13.245-3.844c-1.672-1.752-2.106-3.579-1.446-5.044
				C356.979,245.837,373.731,158.37,365.993,110.466z"/>
			<path style="fill:#BA68C8;" d="M306.069,107.125c4.66-0.94,9.695-0.912,14.973-0.48c2.641-2.254,5.283-4.508,7.924-6.762
				c-1.635,2.349-3.291,4.695-4.936,7.043c3.258,0.343,6.596,0.796,9.989,1.238c2.469-1.67,4.939-3.339,7.408-5.008
				c-1.296,1.818-2.592,3.636-3.887,5.453c10.508,1.283,21.421,2.043,31.913-1.324C357.711,81.28,329.87,78.146,306.069,107.125z"/>
			<path style="fill:#BA68C8;" d="M411.295,108.854c6.045,0.021,12.215,0.782,18.319,3.217
				c-13.913-24.269-42.745-31.293-60.162-4.787c6.24,3.877,13.961,3.756,22.469,2.987c-1.197-3.258-2.779-6.375-4.709-9.26
				c2.924,2.55,5.603,5.607,7.561,8.988c4.175-0.42,8.516-0.899,12.944-1.076c-1.593-2.649-3.522-5.096-5.737-7.252
				C405.739,103.008,409.022,105.579,411.295,108.854z"/>
			<path style="opacity:0.4;fill:#FFFFFF;" d="M306.069,107.125c4.66-0.94,9.695-0.912,14.973-0.48
				c2.641-2.254,5.283-4.508,7.924-6.762c-1.635,2.349-3.291,4.695-4.936,7.043c3.258,0.343,6.596,0.796,9.989,1.238
				c2.469-1.67,4.939-3.339,7.408-5.008c-1.296,1.818-2.592,3.636-3.887,5.453c10.508,1.283,21.421,2.043,31.913-1.324
				C357.711,81.28,329.87,78.146,306.069,107.125z"/>
			<path style="opacity:0.4;fill:#FFFFFF;" d="M411.295,108.854c6.045,0.021,12.215,0.782,18.319,3.217
				c-13.913-24.269-42.745-31.293-60.162-4.787c6.24,3.877,13.961,3.756,22.469,2.987c-1.197-3.258-2.779-6.375-4.709-9.26
				c2.924,2.55,5.603,5.607,7.561,8.988c4.175-0.42,8.516-0.899,12.944-1.076c-1.593-2.649-3.522-5.096-5.737-7.252
				C405.739,103.008,409.022,105.579,411.295,108.854z"/>
			<path style="fill:#BA68C8;" d="M369.452,107.284c-7.729-3.08-16.69-2.335-24.266,1.104c-7.576,3.439-13.832,9.393-18.534,16.258
				c-4.702,6.865-7.937,14.632-10.537,22.536c5.966-3.09,12.041-6.108,18.063-9.16c2.103-4.479,4.205-8.958,6.308-13.437
				c-0.855,3.841-1.71,7.682-2.565,11.523c0.861-0.441,1.727-0.879,2.584-1.323c2.497-1.293,4.999-2.598,7.448-3.985
				c1.66-3.891,3.321-7.782,4.982-11.674c-0.398,3.139-0.796,6.278-1.194,9.417c2.082-1.318,4.096-2.735,5.995-4.311
				C362.929,119.922,367.894,113.85,369.452,107.284z"/>
			<path style="opacity:0.2;fill:#FFFFFF;" d="M369.452,107.284c-7.729-3.08-16.69-2.335-24.266,1.104
				c-7.576,3.439-13.832,9.393-18.534,16.258c-4.702,6.865-7.937,14.632-10.537,22.536c5.966-3.09,12.041-6.108,18.063-9.16
				c2.103-4.479,4.205-8.958,6.308-13.437c-0.855,3.841-1.71,7.682-2.565,11.523c0.861-0.441,1.727-0.879,2.584-1.323
				c2.497-1.293,4.999-2.598,7.448-3.985c1.66-3.891,3.321-7.782,4.982-11.674c-0.398,3.139-0.796,6.278-1.194,9.417
				c2.082-1.318,4.096-2.735,5.995-4.311C362.929,119.922,367.894,113.85,369.452,107.284z"/>
			<path style="fill:#BA68C8;" d="M391.035,136.454c6.263,4.093,12.616,8.284,17.17,15.216
				c0.418-25.492-10.094-47.628-38.753-44.386c1.048,8.715,4.259,14.561,8.519,19.096c0.384-3.134,1.275-6.206,2.651-9.049
				c-0.032,3.794-0.168,7.591-0.247,11.386c2.535,2.264,5.326,4.217,8.19,6.115c0.342-3.124,1.113-6.202,2.3-9.112
				C390.618,129.296,390.679,132.889,391.035,136.454z"/>
			<path style="opacity:0.2;fill:#FFFFFF;" d="M391.035,136.454c6.263,4.093,12.616,8.284,17.17,15.216
				c0.418-25.492-10.094-47.628-38.753-44.386c1.048,8.715,4.259,14.561,8.519,19.096c0.384-3.134,1.275-6.206,2.651-9.049
				c-0.032,3.794-0.168,7.591-0.247,11.386c2.535,2.264,5.326,4.217,8.19,6.115c0.342-3.124,1.113-6.202,2.3-9.112
				C390.618,129.296,390.679,132.889,391.035,136.454z"/>
		</g>
		<g>
			<path style="fill:#455A64;" d="M409.705,165.706l5.016-2.296v5.207c-30.308,33.772-14.672,88.65-10.209,104.544l-0.003,0
				c0.922,1.741,0.191,3.714-2.196,5.092c-3.431,1.981-8.975,1.981-12.384,0c-1.392-0.809-2.202-1.824-2.452-2.875l-0.092,0.012
				C382.508,251.663,378.457,195.402,409.705,165.706z"/>
			<path style="opacity:0.1;fill:#FFFFFF;" d="M409.705,165.706l5.016-2.296v5.207c-30.308,33.772-14.672,88.65-10.209,104.544
				l-0.003,0c0.922,1.741,0.191,3.714-2.196,5.092c-3.431,1.981-8.975,1.981-12.384,0c-1.392-0.809-2.202-1.824-2.452-2.875
				l-0.092,0.012C382.508,251.663,378.457,195.402,409.705,165.706z"/>
			<path style="fill:#BA68C8;" d="M463.953,188.706c-3.238-2.598-7.155-4.595-11.423-6.377c-1.145-2.808-2.29-5.616-3.435-8.423
				c0.326,2.477,0.67,4.962,1.005,7.443c-2.665-1.04-5.436-2.028-8.245-3.046c-1.246-2.285-2.492-4.57-3.738-6.856
				c0.276,1.93,0.553,3.86,0.829,5.789c-8.666-3.219-17.436-7.005-24.225-13.825C434.257,147.947,457.111,156.681,463.953,188.706z"
				/>
			<path style="fill:#BA68C8;" d="M381.633,147.849c-4.698-2.408-9.789-4.292-15.501-4.851
				c20.525-13.247,45.708-7.133,48.589,20.413c-6.395,0.505-12.336-2.685-18.627-6.694c2.235-2.048,4.712-3.831,7.366-5.295
				c-3.292,0.806-6.596,2.103-9.469,3.94c-3.07-2-6.246-4.112-9.61-6.025c2.298-1.416,4.776-2.541,7.358-3.325
				C388.288,145.542,384.71,146.22,381.633,147.849z"/>
			<path style="opacity:0.4;fill:#FFFFFF;" d="M463.953,188.706c-3.238-2.598-7.155-4.595-11.423-6.377
				c-1.145-2.808-2.29-5.616-3.435-8.423c0.326,2.477,0.67,4.962,1.005,7.443c-2.665-1.04-5.436-2.028-8.245-3.046
				c-1.246-2.285-2.492-4.57-3.738-6.856c0.276,1.93,0.553,3.86,0.829,5.789c-8.666-3.219-17.436-7.005-24.225-13.825
				C434.257,147.947,457.111,156.681,463.953,188.706z"/>
			<path style="opacity:0.4;fill:#FFFFFF;" d="M381.633,147.849c-4.698-2.408-9.789-4.292-15.501-4.851
				c20.525-13.247,45.708-7.133,48.589,20.413c-6.395,0.505-12.336-2.685-18.627-6.694c2.235-2.048,4.712-3.831,7.366-5.295
				c-3.292,0.806-6.596,2.103-9.469,3.94c-3.07-2-6.246-4.112-9.61-6.025c2.298-1.416,4.776-2.541,7.358-3.325
				C388.288,145.542,384.71,146.22,381.633,147.849z"/>
			<path style="fill:#BA68C8;" d="M414.721,163.411c7.231,0.71,13.883,4.882,18.381,10.588c4.498,5.706,6.963,12.833,7.857,20.044
				c0.895,7.211,0.289,14.533-0.864,21.707c-3.389-4.79-6.891-9.567-10.339-14.35c0.165-4.318,0.33-8.635,0.495-12.953
				c-0.877,3.322-1.754,6.645-2.631,9.967c-0.491-0.687-0.987-1.374-1.474-2.062c-1.418-2.004-2.836-4.02-4.18-6.078
				c0.272-3.684,0.545-7.369,0.817-11.053c-0.95,2.594-1.9,5.189-2.85,7.784c-1.086-1.858-2.081-3.764-2.922-5.748
				C414.713,175.83,413.297,169.13,414.721,163.411z"/>
			<path style="fill:#BA68C8;" d="M386.281,177.383c-6.5,0.663-13.109,1.367-19.421,4.918c9.898-19.943,26.93-32.898,47.861-18.89
				c-4.308,6.34-9.143,9.587-14.267,11.397c0.96-2.585,1.5-5.326,1.572-8.082c-1.497,2.956-2.914,5.956-4.374,8.931
				c-2.874,0.74-5.823,1.136-8.806,1.459c0.987-2.561,1.624-5.257,1.87-7.991C389.475,171.998,387.987,174.761,386.281,177.383z"/>
			<path style="opacity:0.2;fill:#FFFFFF;" d="M414.721,163.411c7.231,0.71,13.883,4.882,18.381,10.588
				c4.498,5.706,6.963,12.833,7.857,20.044c0.895,7.211,0.289,14.533-0.864,21.707c-3.389-4.79-6.891-9.567-10.339-14.35
				c0.165-4.318,0.33-8.635,0.495-12.953c-0.877,3.322-1.754,6.645-2.631,9.967c-0.491-0.687-0.987-1.374-1.474-2.062
				c-1.418-2.004-2.836-4.02-4.18-6.078c0.272-3.684,0.545-7.369,0.817-11.053c-0.95,2.594-1.9,5.189-2.85,7.784
				c-1.086-1.858-2.081-3.764-2.922-5.748C414.713,175.83,413.297,169.13,414.721,163.411z"/>
			<path style="opacity:0.2;fill:#FFFFFF;" d="M386.281,177.383c-6.5,0.663-13.109,1.367-19.421,4.918
				c9.898-19.943,26.93-32.898,47.861-18.89c-4.308,6.34-9.143,9.587-14.267,11.397c0.96-2.585,1.5-5.326,1.572-8.082
				c-1.497,2.956-2.914,5.956-4.374,8.931c-2.874,0.74-5.823,1.136-8.806,1.459c0.987-2.561,1.624-5.257,1.87-7.991
				C389.475,171.998,387.987,174.761,386.281,177.383z"/>
		</g>
	</g>
</g>
<g id="Plants">
	<g>
		<g>
			<path style="fill:#BA68C8;" d="M446.687,271.796c-40.971-15.498-58.734,5.955-63.866,27.287
				c-0.675,4.611,3.551,10.784,23.878-4.515l-9.395-5.767l13.975,2.963l8.784-5.629l-8.769-6.05l14.06,4.042
				C438.652,275.539,446.687,271.796,446.687,271.796z"/>
			<path style="opacity:0.2;" d="M446.687,271.796c-40.971-15.498-58.734,5.955-63.866,27.287
				c-0.675,4.611,3.551,10.784,23.878-4.515l-9.395-5.767l13.975,2.963l8.784-5.629l-8.769-6.05l14.06,4.042
				C438.652,275.539,446.687,271.796,446.687,271.796z"/>
			<path style="opacity:0.2;" d="M446.687,271.796c-40.971-15.498-58.734,5.955-63.866,27.287
				c-0.675,4.611,3.551,10.784,23.878-4.515l-9.395-5.767l13.975,2.963l8.784-5.629l-8.769-6.05l14.06,4.042
				C438.652,275.539,446.687,271.796,446.687,271.796z"/>
			<path style="fill:#FFFFFF;" d="M433.149,269.834c-27.549-0.795-41.075,12.839-48.755,32.26
				C393.701,287.042,402.992,271.727,433.149,269.834z"/>
		</g>
		<g>
			<path style="fill:#BA68C8;" d="M420.078,249.686c-37.486,3.362-43.187,26.603-39.166,45.021
				c1.205,3.819,6.785,7.008,16.773-12.435l-9.425-0.941l11.917-2.943l4.684-7.643l-9.047-1.394l12.387-2.141
				C415.267,255.59,420.078,249.686,420.078,249.686z"/>
			<path style="fill:#FFFFFF;" d="M408.874,253.239c-21.6,9.704-26.953,25.312-25.618,43.207
				C384.815,281.321,386.264,265.998,408.874,253.239z"/>
			<path style="opacity:0.2;" d="M420.078,249.686c-37.486,3.362-43.187,26.603-39.166,45.021
				c1.205,3.819,6.785,7.008,16.773-12.435l-9.425-0.941l11.917-2.943l4.684-7.643l-9.047-1.394l12.387-2.141
				C415.267,255.59,420.078,249.686,420.078,249.686z"/>
		</g>
	</g>
	<g>
		<g>
			<path style="fill:#BA68C8;" d="M313.065,201.948c42.282,11.447,44.107,39.24,35.766,59.533
				c-2.155,4.133-9.196,6.658-16.705-17.65l10.992,0.831l-13.061-5.787l-3.82-9.708l10.651,0.235l-13.762-4.963
				C317.383,209.689,313.065,201.948,313.065,201.948z"/>
			<path style="opacity:0.2;" d="M313.065,201.948c42.282,11.447,44.107,39.24,35.766,59.533c-2.155,4.133-9.196,6.658-16.705-17.65
				l10.992,0.831l-13.061-5.787l-3.82-9.708l10.651,0.235l-13.762-4.963C317.383,209.689,313.065,201.948,313.065,201.948z"/>
			<path style="opacity:0.2;" d="M313.065,201.948c42.282,11.447,44.107,39.24,35.766,59.533c-2.155,4.133-9.196,6.658-16.705-17.65
				l10.992,0.831l-13.061-5.787l-3.82-9.708l10.651,0.235l-13.762-4.963C317.383,209.689,313.065,201.948,313.065,201.948z"/>
			<path style="fill:#FFFFFF;" d="M325.186,208.291c22.79,15.498,25.763,34.471,20.606,54.709
				C347.07,245.35,348.514,227.495,325.186,208.291z"/>
		</g>
		<g>
			<path style="fill:#BA68C8;" d="M347.583,199.622c28.408,24.689,19.409,46.863,5.359,59.432
				c-3.214,2.389-9.604,1.704-6.307-19.905l8.189,4.76l-7.932-9.367l0.682-8.938l8.148,4.171l-8.783-8.992
				C348.023,207.226,347.583,199.622,347.583,199.622z"/>
			<path style="fill:#FFFFFF;" d="M354.58,209.067c11.818,20.52,7.011,36.305-4.557,50.023
				C357.622,245.92,365.426,232.654,354.58,209.067z"/>
			<path style="opacity:0.2;" d="M347.583,199.622c28.408,24.689,19.409,46.863,5.359,59.432c-3.214,2.389-9.604,1.704-6.307-19.905
				l8.189,4.76l-7.932-9.367l0.682-8.938l8.148,4.171l-8.783-8.992C348.023,207.226,347.583,199.622,347.583,199.622z"/>
		</g>
	</g>
	<g>
		<g>
			<path style="fill:#BA68C8;" d="M108.843,211.391c41.577-13.79,58.438,8.379,62.683,29.905c0.484,4.635-3.994,10.628-23.671-5.498
				l9.625-5.374l-14.086,2.383l-8.543-5.987l9.012-5.682l-14.216,3.457C116.717,215.463,108.843,211.391,108.843,211.391z"/>
			<path style="opacity:0.2;" d="M108.843,211.391c41.577-13.79,58.438,8.379,62.683,29.905c0.484,4.635-3.994,10.628-23.671-5.498
				l9.625-5.374l-14.086,2.383l-8.543-5.987l9.012-5.682l-14.216,3.457C116.717,215.463,108.843,211.391,108.843,211.391z"/>
			<path style="opacity:0.2;" d="M108.843,211.391c41.577-13.79,58.438,8.379,62.683,29.905c0.484,4.635-3.994,10.628-23.671-5.498
				l9.625-5.374l-14.086,2.383l-8.543-5.987l9.012-5.682l-14.216,3.457C116.717,215.463,108.843,211.391,108.843,211.391z"/>
			<path style="fill:#FFFFFF;" d="M122.452,209.99c27.558,0.345,40.509,14.526,47.379,34.249
				C161.154,228.815,152.504,213.129,122.452,209.99z"/>
		</g>
		<g>
			<path style="fill:#BA68C8;" d="M136.344,190.4c37.315,4.909,42.05,28.367,37.27,46.602c-1.362,3.766-7.069,6.722-16.245-13.118
				l9.456-0.55l-11.785-3.433l-4.364-7.83l9.097-1.019l-12.287-2.651C140.907,196.498,136.344,190.4,136.344,190.4z"/>
			<path style="fill:#FFFFFF;" d="M147.392,194.414c21.18,10.589,25.883,26.405,23.809,44.229
				C170.268,223.467,169.455,208.097,147.392,194.414z"/>
			<path style="opacity:0.2;" d="M136.344,190.4c37.315,4.909,42.05,28.367,37.27,46.602c-1.362,3.766-7.069,6.722-16.245-13.118
				l9.456-0.55l-11.785-3.433l-4.364-7.83l9.097-1.019l-12.287-2.651C140.907,196.498,136.344,190.4,136.344,190.4z"/>
		</g>
	</g>
</g>
<g id="Stones">
	<g>
		<g>
			<g>
				<polygon style="fill:#455A64;" points="393.484,286.289 378.924,316.663 374.757,338.97 399.945,360.754 414.275,356.083 
					435.673,359.893 445.403,347.075 453.743,342.814 451.538,303.368 				"/>
				<polygon style="opacity:0.4;" points="374.757,338.97 388.345,350.722 388.345,323.262 399.945,299.54 393.484,286.289 
					378.924,316.663 				"/>
				<polygon style="opacity:0.15;" points="397.448,304.392 406.861,314.111 402.155,330.544 407.345,345.379 402.397,351.784 
					399.945,360.754 388.345,350.722 388.345,323.262 				"/>
				<polygon style="opacity:0.05;fill:#FFFFFF;" points="423.216,319.587 422.145,331.636 423.224,342.814 415.042,339.437 
					411.045,331.2 408.524,335.673 402.155,330.544 406.861,314.111 				"/>
				<polygon style="opacity:0.4;" points="407.345,345.379 412.175,349.946 417.828,347.662 425.844,349.946 423.224,342.814 
					415.042,339.437 411.045,331.2 408.524,335.673 402.155,330.544 				"/>
				<polygon style="opacity:0.05;fill:#FFFFFF;" points="414.275,356.083 412.175,349.946 407.345,345.379 402.397,351.784 
					399.945,360.754 				"/>
				<polygon style="opacity:0.1;" points="417.828,347.662 425.844,349.946 435.673,359.893 414.275,356.083 412.175,349.946 				
					"/>
				<polygon style="opacity:0.1;" points="423.216,319.587 425.844,331.636 438.589,343.537 445.403,347.075 439.235,327.771 
					440.148,315.904 				"/>
				<polygon style="opacity:0.15;" points="435.673,359.893 445.403,347.075 438.589,343.537 425.844,331.636 423.216,319.587 
					422.145,331.636 423.224,342.814 425.844,349.946 				"/>
				<polygon style="opacity:0.4;" points="451.725,306.715 445.403,314.76 440.148,315.904 439.235,327.771 448.558,320.479 				"/>
				<polygon style="opacity:0.15;" points="452.753,325.105 445.48,338.464 445.403,347.075 439.235,327.771 448.558,320.479 
					451.725,306.715 				"/>
				<polygon style="opacity:0.05;fill:#FFFFFF;" points="453.743,342.814 445.403,347.075 445.48,338.464 452.753,325.105 				"/>
			</g>
			<g>
				<polygon style="fill:#BA68C8;" points="441.675,294.8 441.542,287.963 419.218,279.041 410.286,283.217 403.416,280.95 
					388.352,282.236 388.345,284.776 394.031,300.658 406.861,314.111 423.216,319.587 445.403,314.76 453.736,304.156 
					453.743,301.616 				"/>
				<polygon style="opacity:0.2;fill:#FFFFFF;" points="441.675,294.8 441.542,287.963 419.218,279.041 410.286,283.217 
					403.416,280.95 388.352,282.236 388.345,284.776 394.031,300.658 406.861,314.111 423.216,319.587 445.403,314.76 
					453.736,304.156 453.743,301.616 				"/>
				<polygon style="opacity:0.3;" points="394.038,298.117 388.352,282.236 388.345,284.776 394.031,300.658 406.861,314.111 
					406.868,311.57 				"/>
				<polygon style="opacity:0.4;" points="445.41,312.22 445.403,314.76 453.736,304.156 453.743,301.616 				"/>
				<polygon style="opacity:0.3;" points="423.224,317.047 423.216,319.587 445.403,314.76 445.41,312.22 				"/>
				<polygon style="opacity:0.4;" points="406.868,311.57 406.861,314.111 423.216,319.587 423.224,317.047 				"/>
			</g>
		</g>
		<g>
			<polygon style="fill:#455A64;" points="179.988,183.175 159.168,245.923 169.578,259.797 166.975,274.64 192.71,295.161 
				192.71,299.302 215.57,314.379 250.253,319.897 265.856,307.501 275.787,309.096 285.22,304.016 291.892,330.415 
				304.904,337.927 310.109,362.743 329.406,364.094 338.118,372.863 364.76,369.104 375.17,372.863 388.182,352.044 
				381.42,326.806 386.942,311.599 381.953,283.837 327.15,243.81 278.88,176.271 206.012,172.651 			"/>
			<g>
				<polygon style="opacity:0.15;" points="166.975,274.64 169.578,259.797 180.197,238.952 182.252,216.95 188.018,198.322 
					221.626,212.958 200.305,223.081 198.204,243.81 188.951,252.833 188.566,272.757 193.385,287.415 192.71,295.161 				"/>
				<polygon style="opacity:0.3;" points="200.305,223.081 198.204,243.81 213.047,267.755 229.434,276.188 219.024,256.792 
					219.024,243.81 215.57,237.266 				"/>
				<polygon style="opacity:0.15;" points="198.204,243.81 194.301,253.73 198.204,274.822 193.385,287.415 188.566,272.757 
					188.951,252.833 				"/>
				<polygon style="opacity:0.05;fill:#FFFFFF;" points="213.047,267.755 198.204,243.81 194.301,253.73 198.204,274.822 
					204.711,289.152 204.277,295.802 215.57,299.417 218.301,294.501 217.294,289.343 222.331,278.234 				"/>
				<polygon style="opacity:0.3;" points="204.711,289.152 198.204,290.019 192.71,299.302 192.71,295.161 193.385,287.415 
					198.204,274.822 				"/>
				<polygon style="opacity:0.4;" points="188.018,198.322 190.397,187.297 179.988,183.175 159.168,245.923 169.578,259.797 
					180.197,238.952 182.252,216.95 				"/>
				<polygon style="opacity:0.05;" points="213.047,267.755 229.434,276.188 234.639,293.73 242.446,301.056 250.253,319.897 
					239.566,304.016 224.451,297.232 222.331,278.234 				"/>
				<polygon style="opacity:0.15;" points="222.331,278.234 217.294,289.343 218.301,294.501 215.57,299.417 219.024,308.67 
					226.253,309.634 231.65,316.937 234.831,311.562 231.65,305.682 231.265,301.867 224.451,297.232 				"/>
				<polygon style="opacity:0.3;" points="224.451,297.232 231.265,301.867 231.65,305.682 234.831,311.562 231.65,316.937 
					250.253,319.897 239.566,304.016 				"/>
				<polygon style="opacity:0.1;fill:#FFFFFF;" points="204.711,289.152 198.204,290.019 199.168,297.971 205.244,304.429 
					203.409,298.646 204.277,295.802 				"/>
				<polygon style="opacity:0.15;" points="198.204,290.019 199.168,297.971 205.244,304.429 215.57,314.379 192.71,299.302 				"/>
				<polygon style="opacity:0.3;" points="204.277,295.802 203.409,298.646 205.244,304.429 215.57,299.417 				"/>
				<polygon style="opacity:0.05;" points="219.024,308.67 215.57,314.379 205.244,304.429 215.57,299.417 				"/>
				<polygon style="opacity:0.3;" points="226.253,309.634 231.65,316.937 215.57,314.379 219.024,308.67 				"/>
				<polygon style="opacity:0.05;fill:#FFFFFF;" points="239.566,243.81 229.434,255.465 229.434,276.188 219.024,256.792 
					219.024,243.81 215.57,237.266 				"/>
				<polygon style="opacity:0.05;fill:#FFFFFF;" points="239.566,243.81 256.47,264.284 259.651,282.501 272.663,291.288 
					265.856,280.359 265.856,261.682 257.079,238.809 				"/>
				<polygon style="opacity:0.15;" points="256.47,264.284 229.434,276.188 229.434,255.465 239.566,243.81 				"/>
				<polygon style="opacity:0.05;" points="259.651,282.501 242.446,301.056 234.639,293.73 250.253,277.73 229.434,276.188 
					256.47,264.284 				"/>
				<polygon style="opacity:0.4;" points="229.434,276.188 250.253,277.73 234.639,293.73 				"/>
				<polygon style="opacity:0.1;fill:#FFFFFF;" points="259.651,282.501 269.676,295.161 258.06,304.016 242.446,301.056 				"/>
				<polygon style="opacity:0.3;" points="250.253,319.897 265.856,307.501 258.06,304.016 242.446,301.056 				"/>
				<polygon style="opacity:0.4;" points="269.676,295.161 273.675,301.056 285.22,304.016 275.787,309.096 265.856,307.501 
					258.06,304.016 				"/>
				<polygon style="opacity:0.05;" points="259.651,282.501 272.663,291.288 283.507,291.288 291.892,296.79 285.22,304.016 
					273.675,301.056 				"/>
				<polygon style="opacity:0.3;" points="293.082,252.107 285.22,266.462 294.495,274.64 308.235,258.272 				"/>
				<polygon style="opacity:0.15;" points="283.507,291.288 285.22,266.462 294.495,274.64 291.892,296.79 				"/>
				<polygon style="opacity:0.15;" points="257.079,238.809 274.62,241.448 275.772,255.581 285.22,266.462 265.856,261.682 				"/>
				<polygon style="opacity:0.4;" points="285.207,235.296 274.62,241.448 275.772,255.581 285.22,266.462 293.082,252.107 				"/>
				<polygon style="opacity:0.05;fill:#FFFFFF;" points="265.856,261.682 269.676,272.757 279.92,275.422 285.22,266.462 				"/>
				<polygon style="opacity:0.15;" points="272.663,291.288 269.676,272.757 279.92,275.422 283.507,291.288 				"/>
				<polygon style="opacity:0.3;" points="285.22,266.462 279.92,275.422 283.507,291.288 				"/>
				<polygon style="opacity:0.3;" points="265.856,261.682 269.676,272.757 272.663,291.288 265.856,280.359 				"/>
				<polygon style="opacity:0.4;" points="319.901,292.129 312.712,328.912 327.257,350.833 329.406,295.161 				"/>
				<polygon style="opacity:0.15;" points="308.235,258.272 294.495,274.64 302.302,283.837 308.249,303.798 311.244,273.634 				
					"/>
				<polygon style="opacity:0.4;" points="311.244,273.634 324.694,280.359 319.914,287.415 319.901,292.129 308.249,303.798 				
					"/>
				<polygon style="opacity:0.05;fill:#FFFFFF;" points="294.495,274.64 302.302,283.837 291.892,296.79 				"/>
				<polygon style="opacity:0.3;" points="308.249,303.798 300.567,310.476 297.097,321.4 296.133,309.096 291.892,296.79 
					302.302,283.837 				"/>
				<polygon style="opacity:0.05;fill:#FFFFFF;" points="308.249,303.798 304.23,328.912 312.712,328.912 319.901,292.129 				"/>
				<polygon style="opacity:0.05;fill:#FFFFFF;" points="291.892,296.79 285.22,304.016 291.892,330.415 297.097,321.4 
					296.133,309.096 				"/>
				<polygon style="opacity:0.4;" points="308.249,303.798 300.567,310.476 297.097,321.4 291.892,330.415 299.699,334.922 
					304.23,328.912 				"/>
				<polygon style="opacity:0.05;" points="336.25,304.016 341.339,328.912 338.794,345.474 354.351,361.586 351.748,346.943 
					355.796,328.912 358.945,312.215 				"/>
				<polygon style="opacity:0.15;" points="329.406,295.161 336.25,304.016 341.339,328.912 328.046,330.415 				"/>
				<polygon style="opacity:0.3;" points="338.794,345.474 341.339,328.912 328.046,330.415 327.257,350.833 329.406,364.094 
					330.929,350.833 				"/>
				<polygon style="opacity:0.05;fill:#FFFFFF;" points="330.929,350.833 338.794,345.474 354.351,361.586 341.917,364.094 				"/>
				<polygon style="opacity:0.4;" points="338.118,372.863 341.917,364.094 330.929,350.833 329.406,364.094 				"/>
				<polygon style="opacity:0.15;" points="354.351,361.586 364.76,369.104 338.118,372.863 341.917,364.094 				"/>
				<polygon style="opacity:0.3;" points="304.23,328.912 299.699,334.922 304.904,337.927 312.712,328.912 				"/>
				<polygon style="opacity:0.15;" points="310.109,362.743 312.712,328.912 327.257,350.833 329.406,364.094 				"/>
				<polygon style="opacity:0.4;" points="304.904,337.927 312.712,328.912 310.109,362.743 				"/>
				<polygon style="opacity:0.05;fill:#FFFFFF;" points="358.945,312.215 373.05,350.833 374.206,334.922 381.42,326.806 
					368.701,311.083 				"/>
				<polygon style="opacity:0.4;" points="386.942,311.599 381.94,309.546 368.701,311.083 381.42,326.806 				"/>
				<polygon style="opacity:0.15;" points="358.945,312.215 351.748,346.943 360.23,349.923 364.383,360.248 364.383,349.538 
					369.638,341.491 				"/>
				<polygon style="opacity:0.3;" points="381.42,326.806 377.387,337.927 376.327,360.248 373.05,350.833 374.206,334.922 				"/>
				<polygon style="opacity:0.05;fill:#FFFFFF;" points="388.182,352.044 381.42,352.044 377.387,337.927 381.42,326.806 				"/>
				<polygon style="opacity:0.4;" points="376.327,360.248 377.387,337.927 381.42,352.044 388.182,352.044 375.17,372.863 				"/>
				<polygon style="opacity:0.3;" points="369.638,341.491 364.383,349.538 364.383,360.248 364.76,369.104 375.17,372.863 
					376.327,360.248 				"/>
				<polygon style="opacity:0.4;" points="351.748,346.943 360.23,349.923 364.383,360.248 364.76,369.104 354.351,361.586 				"/>
			</g>
			<polygon style="fill:#BA68C8;" points="386.942,284.823 372.323,261.236 348.048,249.678 329.675,228.224 338.105,221.665 
				338.118,216.95 321.802,198.322 327.137,180.986 327.15,176.271 275.457,146.426 234.516,142.414 188.245,150.055 
				172.819,180.408 172.805,185.122 185.881,192.671 182.266,200.583 182.252,205.297 203.112,217.341 200.319,218.367 
				200.305,223.081 215.57,237.266 239.566,243.81 257.079,238.809 274.62,241.448 285.207,235.296 293.082,252.107 
				308.235,258.272 311.244,273.634 324.694,280.359 319.915,287.415 319.901,292.129 329.406,295.161 336.25,304.016 
				358.945,312.215 381.94,309.546 381.953,304.832 377.901,300.029 386.928,289.537 			"/>
			<polygon style="opacity:0.2;fill:#FFFFFF;" points="386.942,284.823 372.323,261.236 348.048,249.678 329.675,228.224 
				338.105,221.665 338.118,216.95 321.802,198.322 327.137,180.986 327.15,176.271 275.457,146.426 234.516,142.414 
				188.245,150.055 172.819,180.408 172.805,185.122 185.881,192.671 182.266,200.583 182.252,205.297 203.112,217.341 
				200.319,218.367 200.305,223.081 215.57,237.266 239.566,243.81 257.079,238.809 274.62,241.448 285.207,235.296 
				293.082,252.107 308.235,258.272 311.244,273.634 324.694,280.359 319.915,287.415 319.901,292.129 329.406,295.161 
				336.25,304.016 358.945,312.215 381.94,309.546 381.953,304.832 377.901,300.029 386.928,289.537 			"/>
			<g>
				<polygon style="fill:#455A64;" points="336.859,251.453 355.495,241.301 362.12,242.207 370.222,249.594 370.508,254.599 
					373.797,259.651 374.226,265.657 364.55,267.087 363.311,268.183 356.734,269.327 353.207,272.282 345.676,270.28 
					343.436,266.372 335.19,262.845 329.566,258.65 330.996,254.885 333.665,251.501 				"/>
				<polygon style="fill:#BA68C8;" points="336.859,251.453 334.332,252.121 333.904,254.79 338.098,258.174 351.038,263.138 
					355.733,257.935 359.895,253.757 366.187,252.613 370.222,249.594 362.12,242.207 355.495,241.301 				"/>
				<polygon style="opacity:0.1;" points="336.859,251.453 333.665,251.501 330.996,254.885 336.859,259.651 348.727,264.418 
					351.396,264.418 355.733,257.935 350.633,263.083 338.098,258.174 333.904,254.79 334.332,252.121 				"/>
				<polygon style="opacity:0.1;" points="344.575,247.25 340.815,252.121 347.344,253.551 354.78,257.935 348.059,251.453 
					344.199,251.453 344.818,249.118 348.85,244.921 				"/>
				<polygon style="opacity:0.3;" points="343.365,256.792 347.297,256.792 347.344,253.551 340.815,252.121 				"/>
				<polygon style="opacity:0.4;" points="351.896,261.808 347.297,256.792 347.344,253.551 354.78,257.935 				"/>
				<polygon style="opacity:0.2;" points="355.495,241.301 354.78,247.624 357.258,251.453 361.103,248.165 362.12,242.207 				"/>
				<polygon style="opacity:0.1;" points="358.148,253.376 362.533,248.832 362.12,242.207 361.103,248.165 357.258,251.453 				"/>
				<polygon style="opacity:0.3;" points="355.733,257.935 358.148,253.376 362.533,248.832 362.12,242.207 370.222,249.594 
					366.187,252.613 359.895,253.757 				"/>
				<polygon style="opacity:0.4;" points="353.207,272.282 351.396,264.418 355.733,257.935 359.895,253.757 366.187,252.613 
					370.222,249.594 370.508,254.599 366.314,253.026 360.952,255.171 357.782,258.317 				"/>
				<polygon style="opacity:0.3;" points="356.734,269.327 355.99,263.788 353.207,272.282 				"/>
				<polygon style="opacity:0.4;" points="363.311,268.183 364.693,263.56 368.363,256.506 372.372,265.931 364.55,267.087 				"/>
				<polygon style="opacity:0.3;" points="366.314,253.026 368.363,256.506 372.372,265.931 374.226,265.657 373.797,259.651 
					370.508,254.599 				"/>
				<polygon style="opacity:0.2;" points="356.734,269.327 363.311,268.183 364.693,263.56 368.363,256.506 366.314,253.026 
					360.952,255.171 357.782,258.317 355.99,263.788 				"/>
				<polygon style="opacity:0.3;" points="348.727,264.418 345.676,270.28 353.207,272.282 351.396,264.418 				"/>
				<polygon style="opacity:0.4;" points="343.436,266.372 346.131,263.375 348.727,264.418 345.676,270.28 				"/>
				<polygon style="opacity:0.3;" points="338.292,264.171 340.656,261.176 346.131,263.375 343.436,266.372 				"/>
				<polygon style="opacity:0.4;" points="335.19,262.845 336.859,259.651 340.656,261.176 338.292,264.171 				"/>
				<polygon style="opacity:0.3;" points="330.996,254.885 336.859,259.651 335.19,262.845 329.566,258.65 				"/>
				<polygon style="opacity:0.05;" points="344.818,249.118 344.199,251.453 348.059,251.453 354.78,257.935 351.896,261.808 
					355.733,257.935 358.148,253.376 357.258,251.453 354.78,247.624 355.495,241.301 348.85,244.921 				"/>
			</g>
			<g>
				<polygon style="opacity:0.4;" points="172.819,180.408 172.805,185.122 185.881,192.671 187.588,188.935 				"/>
				<polygon style="opacity:0.3;" points="321.802,198.322 327.137,180.986 327.15,176.271 320.738,197.108 				"/>
				<polygon style="opacity:0.3;" points="182.266,200.583 182.252,205.297 203.112,217.341 208.112,215.506 				"/>
				<polygon style="opacity:0.3;" points="329.675,228.224 338.105,221.665 338.118,216.95 327.257,225.401 				"/>
				<polygon style="opacity:0.4;" points="200.319,218.367 200.305,223.081 215.57,237.266 215.584,232.551 				"/>
				<polygon style="opacity:0.5;" points="274.633,236.734 274.62,241.448 285.207,235.296 285.22,230.581 				"/>
				<polygon style="opacity:0.3;" points="257.092,234.095 257.079,238.809 274.62,241.448 274.633,236.734 				"/>
				<polygon style="opacity:0.3;" points="215.584,232.551 215.57,237.266 239.566,243.81 239.58,239.096 				"/>
				<polygon style="opacity:0.5;" points="239.58,239.096 239.566,243.81 257.079,238.809 257.092,234.095 				"/>
				<polygon style="opacity:0.4;" points="285.22,230.581 285.207,235.296 293.082,252.107 293.095,247.393 				"/>
				<polygon style="opacity:0.3;" points="293.095,247.393 293.082,252.107 308.235,258.272 308.249,253.558 				"/>
				<polygon style="opacity:0.5;" points="308.249,253.558 308.235,258.272 311.244,273.634 311.257,268.92 				"/>
				<polygon style="opacity:0.3;" points="311.257,268.92 311.244,273.634 324.694,280.359 327.083,276.833 				"/>
				<polygon style="opacity:0.3;" points="319.914,287.415 319.901,292.129 329.406,295.161 329.42,290.447 				"/>
				<polygon style="opacity:0.4;" points="386.942,284.823 375.899,297.656 377.901,300.029 386.928,289.537 				"/>
				<polygon style="opacity:0.4;" points="329.42,290.447 329.406,295.161 336.25,304.016 336.263,299.302 				"/>
				<polygon style="opacity:0.3;" points="336.263,299.302 336.25,304.016 358.945,312.215 358.958,307.501 				"/>
				<polygon style="opacity:0.4;" points="358.945,312.215 381.94,309.546 381.953,304.832 358.958,307.501 				"/>
			</g>
		</g>
		<g>
			<polygon style="fill:#455A64;" points="356.042,359.223 310.425,334.373 294.209,336.589 274.375,354.673 273.675,366.923 
				265.625,379.29 264.575,393.99 288.258,397.49 291.292,400.173 307.392,402.973 316.025,410.207 334.459,405.306 339.942,395.74 
				360.125,387.107 373.892,376.84 370.392,367.623 363.859,359.34 			"/>
			<polygon style="opacity:0.1;" points="356.042,359.223 363.859,359.34 370.392,367.623 356.042,379.29 326.992,390.957 
				320.459,390.957 309.842,375.09 322.326,387.69 353.009,375.673 363.275,367.39 362.226,360.856 			"/>
			<polygon style="opacity:0.1;" points="337.154,348.934 346.359,360.856 330.375,364.357 312.175,375.09 328.625,359.223 
				338.076,359.223 336.559,353.506 326.689,343.232 			"/>
			<polygon style="opacity:0.3;" points="340.117,372.29 330.492,372.29 330.375,364.357 346.359,360.856 			"/>
			<polygon style="opacity:0.4;" points="319.234,384.569 330.492,372.29 330.375,364.357 312.175,375.09 			"/>
			<polygon style="opacity:0.2;" points="310.425,334.373 312.175,349.851 306.108,359.223 296.697,351.173 294.209,336.589 			"/>
			<polygon style="opacity:0.1;" points="303.931,363.929 293.197,352.806 294.209,336.589 296.697,351.173 306.108,359.223 			"/>
			<polygon style="opacity:0.3;" points="309.842,375.09 303.931,363.929 293.197,352.806 294.209,336.589 274.375,354.673 
				284.253,362.062 299.653,364.862 			"/>
			<polygon style="opacity:0.4;" points="316.025,410.207 320.459,390.957 309.842,375.09 299.653,364.862 284.253,362.062 
				274.375,354.673 273.675,366.923 283.942,363.073 297.067,368.323 304.825,376.023 			"/>
			<polygon style="opacity:0.3;" points="307.392,402.973 309.213,389.415 316.025,410.207 			"/>
			<polygon style="opacity:0.4;" points="291.292,400.173 287.908,388.856 278.925,371.59 269.112,394.66 288.258,397.49 			"/>
			<polygon style="opacity:0.3;" points="283.942,363.073 278.925,371.59 269.112,394.66 264.575,393.99 265.625,379.29 
				273.675,366.923 			"/>
			<polygon style="opacity:0.2;" points="307.392,402.973 291.292,400.173 287.908,388.856 278.925,371.59 283.942,363.073 
				297.067,368.323 304.825,376.023 309.213,389.415 			"/>
			<polygon style="opacity:0.3;" points="326.992,390.957 334.459,405.306 316.025,410.207 320.459,390.957 			"/>
			<polygon style="opacity:0.4;" points="339.942,395.74 333.345,388.405 326.992,390.957 334.459,405.306 			"/>
			<polygon style="opacity:0.3;" points="352.534,390.354 346.746,383.023 333.345,388.405 339.942,395.74 			"/>
			<polygon style="opacity:0.4;" points="360.125,387.107 356.042,379.29 346.746,383.023 352.534,390.354 			"/>
			<polygon style="opacity:0.3;" points="370.392,367.623 356.042,379.29 360.125,387.107 373.892,376.84 			"/>
			<polygon style="opacity:0.05;" points="336.559,353.506 338.076,359.223 328.625,359.223 312.175,375.09 319.234,384.569 
				309.842,375.09 303.931,363.929 306.108,359.223 312.175,349.851 310.425,334.373 326.689,343.232 			"/>
		</g>
		<g>
			<polygon style="fill:#455A64;" points="389.025,387.082 403.191,375.562 408.937,375.285 416.953,380.259 417.982,384.447 
				421.559,388.203 422.867,393.215 414.908,395.947 414.033,397.069 408.649,399.072 406.131,402.126 399.446,401.618 
				396.936,398.665 389.407,396.979 383.99,394.317 384.606,390.907 386.331,387.624 			"/>
			<polygon style="opacity:0.1;" points="389.025,387.082 386.331,387.624 384.606,390.907 390.315,394.016 401.104,396.18 
				403.361,395.759 406.01,389.594 402.506,394.751 391.131,392.571 387.051,390.369 386.993,388.043 			"/>
			<polygon style="opacity:0.1;" points="394.89,382.312 392.476,387.023 398.224,387.205 405.204,389.744 398.499,385.319 
				395.234,385.926 395.39,383.853 398.14,379.669 			"/>
			<polygon style="opacity:0.3;" points="395.368,390.573 398.694,389.954 398.224,387.205 392.476,387.023 			"/>
			<polygon style="opacity:0.4;" points="403.374,393.474 398.694,389.954 398.224,387.205 405.204,389.744 			"/>
			<polygon style="opacity:0.2;" points="403.191,375.562 403.581,381.023 406.28,383.871 409.014,380.484 408.937,375.285 			"/>
			<polygon style="opacity:0.1;" points="407.335,385.357 410.329,380.824 408.937,375.285 409.014,380.484 406.28,383.871 			"/>
			<polygon style="opacity:0.3;" points="406.01,389.594 407.335,385.357 410.329,380.824 408.937,375.285 416.953,380.259 
				414.015,383.447 408.873,385.405 			"/>
			<polygon style="opacity:0.4;" points="406.131,402.126 403.361,395.759 406.01,389.594 408.873,385.405 414.015,383.447 
				416.953,380.259 417.982,384.447 414.187,383.776 409.989,386.434 407.803,389.594 			"/>
			<polygon style="opacity:0.3;" points="408.649,399.072 407.148,394.504 406.131,402.126 			"/>
			<polygon style="opacity:0.4;" points="414.033,397.069 414.474,392.941 416.468,386.397 421.343,393.738 414.908,395.947 			"/>
			<polygon style="opacity:0.3;" points="414.187,383.776 416.468,386.397 421.343,393.738 422.867,393.215 421.559,388.203 
				417.982,384.447 			"/>
			<polygon style="opacity:0.2;" points="408.649,399.072 414.033,397.069 414.474,392.941 416.468,386.397 414.187,383.776 
				409.989,386.434 407.803,389.594 407.148,394.504 			"/>
			<polygon style="opacity:0.3;" points="401.104,396.18 399.446,401.618 406.131,402.126 403.361,395.759 			"/>
			<polygon style="opacity:0.4;" points="396.936,398.665 398.744,395.706 401.104,396.18 399.446,401.618 			"/>
			<polygon style="opacity:0.3;" points="392.239,397.613 393.767,394.708 398.744,395.706 396.936,398.665 			"/>
			<polygon style="opacity:0.4;" points="389.407,396.979 390.315,394.016 393.767,394.708 392.239,397.613 			"/>
			<polygon style="opacity:0.3;" points="384.606,390.907 390.315,394.016 389.407,396.979 383.99,394.317 			"/>
			<polygon style="opacity:0.05;" points="395.39,383.853 395.234,385.926 398.499,385.319 405.204,389.744 403.374,393.474 
				406.01,389.594 407.335,385.357 406.28,383.871 403.581,381.023 403.191,375.562 398.14,379.669 			"/>
		</g>
	</g>
</g>
<g id="Clouds">
	<g>
		<g>
			<path style="fill:#E6E6E6;" d="M104.362,57.803c4.197-2.423,7.743-1.236,8.87,2.529c1.086-2.11,2.712-3.994,4.534-5.046
				c3.288-1.898,5.964-0.373,5.975,3.405l0.005,1.735l4.414-2.549c2.304-1.33,4.175-0.259,4.183,2.388
				c0.007,2.647-1.852,5.868-4.156,7.198L90.791,89.054c-2.304,1.33-4.179,0.266-4.187-2.381c-0.007-2.647,1.856-5.874,4.16-7.204
				l4.414-2.549l-0.009-3.192C95.152,67.874,99.268,60.744,104.362,57.803z"/>
		</g>
		<g>
			<path style="fill:#E6E6E6;" d="M141.01,71.949c3.012-1.739,5.557-0.888,6.366,1.815c0.78-1.515,1.947-2.867,3.254-3.622
				c2.36-1.362,4.281-0.268,4.288,2.444l0.003,1.245l3.168-1.829c1.654-0.955,2.997-0.186,3.002,1.714
				c0.005,1.9-1.329,4.212-2.983,5.166l-26.841,15.497c-1.653,0.955-3,0.191-3.005-1.709c-0.005-1.9,1.332-4.216,2.985-5.171
				l3.168-1.829l-0.007-2.291C134.399,79.177,137.354,74.059,141.01,71.949z"/>
		</g>
	</g>
</g>
<g id="Character">
	<g>
		<path style="opacity:0.1;" d="M305.991,168.111c-5.589-3.227-14.622-3.227-20.175,0l-0.019,0.011
			c-1.03,0.599-2.309,0.433-3.2-0.357c-1.093-0.97-2.375-1.889-3.848-2.74c-11.422-6.594-29.879-6.594-41.227,0
			c-7.778,4.52-10.194,10.964-7.269,16.695c-0.069,0.039-0.144,0.072-0.213,0.112c-5.553,3.227-5.524,8.459,0.065,11.686
			c0.141,0.082,0.294,0.152,0.44,0.23l-8.11,5.74c-5.181-1.244-11.358-0.65-15.551,1.787c-5.553,3.227-5.524,8.459,0.065,11.686
			c5.59,3.227,14.622,3.227,20.176,0c1.92-1.116,3.157-2.474,3.743-3.903l0.013,0.008c3.176-5.433,7.887-9.286,12.708-12.005
			c4.125-2.327,8.821-3.349,13.555-3.238c7.842,0.184,15.772-1.449,21.74-4.917c3.289-1.911,5.618-4.168,6.991-6.568
			c0.608-1.063,1.859-1.599,3.022-1.214c5.459,1.809,12.522,1.369,17.161-1.327C311.61,176.571,311.581,171.339,305.991,168.111z"/>
		<g>
			<g>
				<polygon style="fill:#FFA8A7;" points="253.833,150.417 252.385,157.75 246.917,153 247.467,147.89 				"/>
				<path style="fill:#BA68C8;" d="M255.194,136.849c-7.194,1.901-8.688,12.568-8.688,12.568c4.661,3.833,7.825,3.092,7.825,3.092
					L255.194,136.849z"/>
				<path style="opacity:0.3;fill:#FFFFFF;" d="M255.194,136.849c-7.194,1.901-8.688,12.568-8.688,12.568
					c4.661,3.833,7.825,3.092,7.825,3.092L255.194,136.849z"/>
			</g>
			<g>
				<path style="fill:#455A64;" d="M216.863,197.597c-1.377,2.452,0.539,6.681,3.685,7.118
					C224.673,198.423,218.553,196.666,216.863,197.597z"/>
				<path style="opacity:0.3;" d="M216.863,197.597c-1.377,2.452,0.539,6.681,3.685,7.118
					C224.673,198.423,218.553,196.666,216.863,197.597z"/>
				<path style="fill:#BA68C8;" d="M255.194,136.849l8.767-1.427l12.67,1.873c7.369,21.437,3.89,29.939,1.238,36.927L255.923,163.8
					C253.213,149.427,249.909,140.05,255.194,136.849z"/>
				<path style="opacity:0.5;fill:#FFFFFF;" d="M255.194,136.849l8.767-1.427l12.67,1.873c7.369,21.437,3.89,29.939,1.238,36.927
					L255.923,163.8C253.213,149.427,249.909,140.05,255.194,136.849z"/>
				<g>
					<path style="fill:#263238;" d="M254.948,126.108c-1.098-0.789-1.887-1.998-2.167-3.322c-0.279-1.323-0.047-2.748,0.639-3.914
						c-0.595-0.285-1.173-0.76-1.444-1.362c-0.261-0.58-0.132-1.313,0.312-1.768c0.443-0.455,1.173-0.604,1.76-0.358
						c-0.366-0.9,0.056-2.123,0.893-2.615c0.838-0.491,2.022-0.272,2.628,0.486c-0.04-0.618,0.389-1.213,0.977-1.406
						c0.588-0.193,1.236-0.087,1.822,0.114c0.586,0.201,1.138,0.492,1.729,0.679c0.997,0.316,2.061,0.322,3.104,0.396
						c1.044,0.074,2.121,0.231,2.999,0.8c0.878,0.568,1.653,1.897,1.18,3.041c0.296-0.375,0.768-0.645,1.246-0.661
						s0.958,0.188,1.278,0.542c-0.653,0.404-1.285,0.84-1.938,1.245c0.657-0.295,1.637,0.168,1.993,0.795
						c0.356,0.627,0.372,1.384,0.351,2.105c-0.081,2.737-0.579,5.458-1.444,8.056c-0.447,1.343-1.092,2.766-2.365,3.386
						L254.948,126.108z"/>
					<g>
						<path style="fill:#FFA8A7;" d="M261.874,132.574l0.287,3.211c0.022,0.25-0.057,0.49-0.182,0.708
							c-0.361,0.629-0.249,1.634,0.283,2.098c0.387,0.338,0.922,0.449,1.434,0.486c1.981,0.144,4.001-0.711,5.307-2.047
							c0.285-0.292,0.431-0.692,0.42-1.099l-0.211-8.143L261.874,132.574z"/>
						<path style="opacity:0.3;" d="M268.568,128.21l-6.693,4.364l0.255,2.848c1.556-0.365,3.121-0.814,4.353-1.815
							C268.048,132.333,268.863,130.205,268.568,128.21z"/>
					</g>
					<g>
						<path style="fill:#FFA8A7;" d="M254.577,119.491c-0.491,3.712-0.245,7.52,0.721,11.138c0.211,0.793,0.461,1.585,0.884,2.288
							c0.423,0.703,1.037,1.316,1.805,1.604c0.945,0.354,1.995,0.183,2.989,0.008c1.817-0.32,3.681-0.658,5.259-1.613
							c1.578-0.955,2.83-2.681,2.677-4.52c0.92,0.528,2.082,0.667,3.017,0.167c0.935-0.5,1.582-1.5,1.655-2.558
							c0.07-1.029-0.525-2.177-1.536-2.381c-0.618-0.124-1.264,0.123-1.759,0.514c-0.494,0.391-0.864,0.915-1.226,1.431
							c-0.173,0.246-0.353,0.499-0.611,0.653c-0.258,0.155-0.615,0.185-0.844-0.01c-0.25-0.213-0.255-0.591-0.24-0.919l0.107-2.331
							c0.017-0.367-0.19-0.701-0.517-0.868c-0.475-0.242-0.837-0.686-1.044-1.201c-0.179-0.446-0.256-0.921-0.295-1.402
							c-0.031-0.387-0.426-0.634-0.786-0.489C261.705,120.264,257.804,120.32,254.577,119.491z"/>
						<g>
							<polygon style="fill:#F28F8F;" points="259.705,125.144 257.609,128.673 260.108,129.142 							"/>
							<path style="fill:#F28F8F;" d="M262.517,130.358c-0.633,0.308-1.266,0.616-1.899,0.923c0.276,0.432,0.972,0.619,1.44,0.409
								C262.525,131.481,262.656,130.851,262.517,130.358z"/>
							<path style="opacity:0.3;" d="M262.517,130.358c-0.633,0.308-1.266,0.616-1.899,0.923c0.276,0.432,0.972,0.619,1.44,0.409
								C262.525,131.481,262.656,130.851,262.517,130.358z"/>
							<path style="fill:#F28F8F;" d="M261.398,131.753c0.228,0.04,0.464,0.026,0.659-0.062c0.367-0.165,0.524-0.588,0.508-1.001
								c-0.27,0.001-0.54,0.089-0.749,0.26C261.577,131.147,261.429,131.444,261.398,131.753z"/>
							<path style="fill:#263238;" d="M263.324,125.284c0.04,0.395-0.248,0.746-0.642,0.786c-0.395,0.04-0.746-0.248-0.786-0.642
								c-0.04-0.394,0.248-0.746,0.642-0.786C262.932,124.602,263.284,124.89,263.324,125.284z"/>
							<path style="fill:#263238;" d="M257.305,125.657c0.04,0.394-0.248,0.746-0.642,0.786c-0.394,0.04-0.747-0.248-0.786-0.642
								c-0.04-0.394,0.248-0.746,0.642-0.786C256.913,124.975,257.265,125.263,257.305,125.657z"/>
							<path style="fill:#263238;" d="M256.323,122.885c-0.491,0.418-0.982,0.836-1.473,1.254c-0.194-0.36-0.093-0.862,0.196-1.152
								C255.336,122.698,255.963,122.691,256.323,122.885z"/>
							<path style="fill:#263238;" d="M262.43,122.183c0.565,0.312,1.129,0.623,1.694,0.935c0.119-0.391-0.081-0.864-0.422-1.089
								C263.361,121.803,262.744,121.921,262.43,122.183z"/>
						</g>
					</g>
				</g>
				<g>
					<g>
						<g>
							<path style="fill:#FFA8A7;" d="M234.651,170.94l0.433,3.828l1.012,0.056c0.982,0.054,1.836,0.689,2.17,1.614l0.023,0.064
								c0.174,0.48,0.695,0.739,1.183,0.587l0,0c0.253-0.079,0.463-0.26,0.577-0.499l0.195-0.406l-0.281-5.404L234.651,170.94z"/>
							<path style="fill:#FFFFFF;" d="M233.598,186.148c-2.652,1.133-6.713,1.354-8.398-1.354v0.733
								c1.685,2.707,5.746,2.486,8.398,1.354c2.652-1.133,2.072-2.983,4.447-3.978c1.519-0.58,2.32-1.464,2.32-1.464
								c0.009-0.216,0.046-0.487,0.083-0.799c-0.426,0.387-1.32,1.117-2.403,1.531C235.67,183.165,236.25,185.015,233.598,186.148z"
								/>
							<path style="fill:#37474F;" d="M240.449,178.234c-0.122-0.798-0.063-1.286,0.013-1.564c0.066-0.238,0.018-0.49-0.121-0.693
								l-0.293,0.611c-0.115,0.239-0.324,0.42-0.577,0.499c-0.488,0.152-1.009-0.106-1.183-0.587l-0.023-0.064
								c-0.335-0.924-1.189-1.559-2.17-1.614l-1.029-0.057c-0.315-0.017-0.604,0.165-0.725,0.456
								c-1.058,2.552-3.72,5.388-5.771,6.686c-1.505-0.035-3.37,1.215-3.37,2.735v0.151c1.685,2.707,5.746,2.486,8.398,1.354
								c2.652-1.133,2.072-2.983,4.447-3.978c1.083-0.413,1.977-1.144,2.403-1.531C240.523,180.012,240.596,179.202,240.449,178.234
								z"/>
							<g>
								<path style="fill:#FFFFFF;" d="M235.315,180.328c0.116,0.142,0.328,0.159,0.469,0.043c0.14-0.115,0.169-0.323,0.055-0.464
									c-1.07-1.327-2.364-1.614-3.463-1.521c-0.142,0.175-0.286,0.348-0.434,0.518
									C233.191,178.835,234.31,179.104,235.315,180.328z"/>
								<path style="fill:#FFFFFF;" d="M236.361,179.157c0.116,0.142,0.328,0.159,0.469,0.043c0.14-0.115,0.169-0.323,0.055-0.464
									c-1.064-1.32-2.423-1.662-3.614-1.56c-0.127,0.19-0.261,0.378-0.398,0.565C234.169,177.65,235.326,177.896,236.361,179.157z
									"/>
								<path style="fill:#FFFFFF;" d="M234.228,181.473c0.116,0.142,0.328,0.159,0.469,0.042c0.14-0.115,0.168-0.323,0.055-0.464
									c-1.04-1.291-2.293-1.597-3.372-1.528c-0.171,0.18-0.344,0.354-0.519,0.525C232.109,179.981,233.225,180.25,234.228,181.473
									z"/>
								<path style="fill:#FFFFFF;" d="M228.571,181.908c-1.505-0.035-3.37,1.215-3.37,2.735v0.151
									c1.66,2.667,5.623,2.49,8.276,1.401C233.272,182.552,229.774,181.895,228.571,181.908z"/>
								<path style="fill:#FFFFFF;" d="M233.109,182.565c0.116,0.142,0.328,0.159,0.469,0.043c0.14-0.115,0.169-0.323,0.055-0.464
									c-1.043-1.294-2.299-1.599-3.38-1.527c-0.212,0.188-0.422,0.365-0.631,0.532
									C230.918,181.058,232.074,181.304,233.109,182.565z"/>
							</g>
						</g>
						<g>
							<path style="fill:#455A64;" d="M261.867,167.632c-8.482-16.423-21.206-27.469-27.272-24.363
								c-6.066,3.107-2.367,16.127-1.973,20.96c0.395,4.833,1.381,9.518,1.381,9.518c3.354,1.628,6.855,0,6.855,0l0.74-6.904
								C247.84,178.369,257.823,175.867,261.867,167.632z"/>
							<path style="opacity:0.2;" d="M245.789,168.158c-2.894-5.042,0.066-13.48-4.8-19.135c2.236,4.274,1.216,13.085,0.608,17.82
								c5.494,10.144,13.883,9.421,18.573,3.488l-0.307,0.114C258.833,170.928,250.426,176.236,245.789,168.158z"/>
						</g>
					</g>
				</g>
				<g>
					<path style="fill:#FFA8A7;" d="M215.822,199.665c0.892-0.689,1.784-1.379,2.676-2.068c1.956,0.772,3.449,2.942,3.498,5.045
						c0,0-3.074,1.532-4.355,2.689C213.079,202.767,215.822,199.665,215.822,199.665z"/>
					<path style="fill:#FFFFFF;" d="M211.838,195.718c0.014-1.015-0.21-2.026-0.624-2.953c-0.592-0.813-1.171-1.474-1.708-1.756
						c-1.817-0.953-3.425-0.953-5.08-0.146l5.081,10.431C210.834,199.957,211.812,197.547,211.838,195.718z"/>
					<path style="fill:#37474F;" d="M217.665,204.53c-1.132-0.03-1.34-2.412-1.251-3.752c0.089-1.34,0.477-1.757-1.161-2.65
						c-1.153-0.629-2.631-3.427-4.039-5.361c0.414,0.926,0.638,1.938,0.624,2.953c-0.026,1.829-1.004,4.238-2.33,5.577l4.465,9.165
						c0,0,2.978-2.655,3.693-3.757C218.38,205.602,218.797,204.56,217.665,204.53z"/>
					<g>
						<path style="fill:#FFFFFF;" d="M214.442,207.561c-0.862-2.253-1.724-4.507-2.586-6.761c-0.705-1.843-1.411-3.687-2.186-5.502
							c-0.416-0.974-0.86-1.952-1.521-2.779c-0.661-0.828-1.571-1.502-2.615-1.68c-0.769-0.131-1.605,0.055-2.217,0.521
							l-0.001-0.002l-0.022,0.018c-0.012,0.009-0.022,0.019-0.034,0.028l-0.824,0.682l0.212,0.098
							c-0.464,0.935-0.329,2.025,0.064,3.083c0.438,1.178,1.186,2.312,1.751,3.137c0.668,0.974,1.767,1.822,2.286,2.863
							c0.415,0.832,0.513,1.947,0.733,2.847c0.507,2.076,1.084,4.278,2.65,5.734c0.711,0.661,1.651,1.14,2.62,1.074
							c0.127-0.009,0.254-0.03,0.379-0.061v0.297l0.842-0.696c0.071-0.052,0.138-0.107,0.202-0.167l0.064-0.053l-0.007-0.003
							c0.293-0.293,0.501-0.659,0.548-1.074C214.84,208.616,214.639,208.076,214.442,207.561z"/>
						<path style="fill:#455A64;" d="M201.942,195.903c-0.424-1.14-0.557-2.32,0.047-3.3c0.556-0.902,1.73-1.304,2.775-1.127
							c1.044,0.177,1.954,0.852,2.615,1.68c0.661,0.828,1.105,1.805,1.521,2.779c0.775,1.815,1.481,3.659,2.186,5.502
							c0.862,2.254,1.724,4.507,2.586,6.761c0.197,0.515,0.398,1.055,0.336,1.603c-0.108,0.965-1.059,1.691-2.027,1.756
							c-0.969,0.066-1.909-0.413-2.62-1.074c-1.565-1.455-2.143-3.657-2.65-5.734c-0.219-0.9-0.318-2.015-0.733-2.846
							c-0.519-1.042-1.619-1.889-2.286-2.863C203.129,198.215,202.38,197.081,201.942,195.903z"/>
						<path style="opacity:0.4;fill:#FFFFFF;" d="M201.942,195.903c-0.424-1.14-0.557-2.32,0.047-3.3
							c0.556-0.902,1.73-1.304,2.775-1.127c1.044,0.177,1.954,0.852,2.615,1.68c0.661,0.828,1.105,1.805,1.521,2.779
							c0.775,1.815,1.481,3.659,2.186,5.502c0.862,2.254,1.724,4.507,2.586,6.761c0.197,0.515,0.398,1.055,0.336,1.603
							c-0.108,0.965-1.059,1.691-2.027,1.756c-0.969,0.066-1.909-0.413-2.62-1.074c-1.565-1.455-2.143-3.657-2.65-5.734
							c-0.219-0.9-0.318-2.015-0.733-2.846c-0.519-1.042-1.619-1.889-2.286-2.863C203.129,198.215,202.38,197.081,201.942,195.903z"
							/>
					</g>
					<g>
						<path style="fill:#FFFFFF;" d="M212.375,196.198c-0.022,0.1,0.004,0.204,0.072,0.28c0.002,0.002,0.003,0.004,0.005,0.006
							c0.169,0.19,0.486,0.109,0.541-0.14c0.055-0.248,0.089-0.498,0.112-0.748c-0.216-0.326-0.433-0.658-0.653-0.996
							C212.512,195.133,212.488,195.674,212.375,196.198z"/>
						<path style="fill:#FFFFFF;" d="M214.996,198.831c-0.022,0.1,0.004,0.204,0.072,0.281c0.002,0.002,0.003,0.004,0.005,0.006
							c0.169,0.19,0.486,0.109,0.541-0.14c0.042-0.19,0.075-0.382,0.099-0.573c-0.134-0.088-0.28-0.179-0.46-0.277
							c-0.049-0.027-0.102-0.079-0.153-0.113C215.089,198.288,215.054,198.562,214.996,198.831z"/>
						<path style="fill:#FFFFFF;" d="M213.179,197.24c-0.022,0.1,0.004,0.204,0.072,0.281c0.002,0.002,0.003,0.004,0.005,0.006
							c0.169,0.19,0.486,0.109,0.541-0.14c0.048-0.213,0.082-0.427,0.106-0.641c-0.209-0.282-0.423-0.586-0.64-0.909
							C213.298,196.306,213.279,196.78,213.179,197.24z"/>
						<path style="fill:#FFFFFF;" d="M214.133,198.086c-0.022,0.1,0.004,0.204,0.072,0.28c0.002,0.002,0.003,0.004,0.005,0.006
							c0.169,0.19,0.486,0.109,0.541-0.14c0.031-0.141,0.052-0.282,0.073-0.423c-0.19-0.172-0.388-0.393-0.59-0.64
							C214.227,197.477,214.199,197.784,214.133,198.086z"/>
					</g>
				</g>
				<path style="fill:#455A64;" d="M258.673,165.132l-0.971,6.378l-13.57,4.48c-2.554,0.843-4.915,2.186-6.945,3.95l-20.324,17.658
					c4.417,0.538,3.685,7.118,3.685,7.118c9.763-5.625,21.14-12.099,23.39-15.224c15.125-1.5,28.059-5.414,30.11-6.807
					c3.057-2.074,4.604-6.313,3.82-8.462C276.437,170.297,258.673,165.132,258.673,165.132z"/>
			</g>
			<g>
				<path style="fill:#FFA8A7;" d="M276.631,137.296L276.631,137.296c3.611,0.706,6.738,2.942,8.574,6.13l14.631,25.406
					c-0.774,2.888-4.453,2.12-4.453,2.12l-17.538-24.432C275.538,142.194,276.631,137.296,276.631,137.296z"/>
				<path style="fill:#BA68C8;" d="M276.631,137.296l0.444,0.087c3.351,0.655,6.298,2.631,8.176,5.483l3.743,5.686
					c-2.646,4.453-7.551,3.939-7.551,3.939l-4.098-5.682C275.184,143.55,275.335,138.915,276.631,137.296z"/>
				<path style="opacity:0.3;fill:#FFFFFF;" d="M276.631,137.296l0.444,0.087c3.351,0.655,6.298,2.631,8.176,5.483l3.743,5.686
					c-2.646,4.453-7.551,3.939-7.551,3.939l-4.098-5.682C275.184,143.55,275.335,138.915,276.631,137.296z"/>
				<path style="fill:#FFA8A7;" d="M295.383,170.952c-0.604,2.589,5.735,6.015,5.735,6.015c0.543-0.86-0.906-2.42-1.57-3.104
					c2.202,0.057,6.664,0.207,8.276,0.262c0.328,0.011,0.598-0.252,0.598-0.58l0,0c0-0.294-0.221-0.542-0.513-0.576l-3.924-0.454
					l4.165-0.158c0.337-0.013,0.604-0.29,0.604-0.627l0,0c0-0.328-0.252-0.6-0.578-0.626l-4.312-0.339l3.074-0.578
					c0.301-0.057,0.496-0.351,0.429-0.65l0,0c-0.057-0.258-0.292-0.437-0.556-0.424l-3.663,0.181l2.174-0.45
					c0.264-0.055,0.419-0.329,0.331-0.583l0,0c-0.063-0.181-0.234-0.302-0.426-0.301c-3.473,0.032-6.584,0.564-6.584,0.564
					L295.383,170.952z"/>
			</g>
		</g>
	</g>
</g>
<g id="Speech_bubble">
	<g>
		<path style="fill:#BA68C8;" d="M200.067,110.198c-0.002,0.664,0.352,1.279,0.927,1.611l27.214,15.808
			c0.186,0.108,0.392,0.102,0.563,0.023c0.01-0.005,0.021-0.008,0.03-0.013c0.014-0.007,0.027-0.014,0.04-0.022l2.757-1.53
			c0.004-0.002,0.007-0.004,0.011-0.006l0.004-0.002l-0.001,0c0.176-0.105,0.301-0.294,0.302-0.528l0.015-5.181l3.812,0.464
			c0.157,0.019,0.276-0.028,0.359-0.118l2.62-1.444c0.458-0.144,0.395-1.063-0.195-1.673l-6.569-6.792l0.02-7.057
			c0.001-0.266-0.058-0.523-0.163-0.759c-0.157-0.352-0.419-0.653-0.764-0.852l-27.214-15.809c-0.199-0.115-0.422-0.103-0.599-0.008
			V86.31l-0.01,0.006c-0.005,0.003-0.009,0.005-0.014,0.007l-2.772,1.54l0,0c-0.181,0.104-0.311,0.296-0.311,0.535L200.067,110.198z
			 M228.769,104.098c-0.02-0.024-0.041-0.048-0.062-0.071C228.728,104.05,228.749,104.074,228.769,104.098z M228.931,104.325
			c-0.014-0.023-0.03-0.045-0.045-0.068C228.9,104.279,228.917,104.301,228.931,104.325z M229.165,104.957
			c-0.005-0.026-0.01-0.052-0.016-0.079C229.155,104.905,229.161,104.93,229.165,104.957z M228.502,103.834
			c0.023,0.018,0.043,0.038,0.064,0.057C228.545,103.871,228.524,103.852,228.502,103.834z"/>
		<path style="opacity:0.2;" d="M229.135,127.084c-0.001,0.23-0.123,0.416-0.294,0.522l2.757-1.53
			c0.004-0.002,0.007-0.004,0.011-0.006l0.004-0.002l-0.001,0c0.176-0.105,0.301-0.294,0.302-0.528l0.015-5.181l-2.774-0.338
			L229.135,127.084z"/>
		<path style="opacity:0.3;fill:#FFFFFF;" d="M231.049,102.128l-27.214-15.809c-0.199-0.115-0.422-0.103-0.599-0.008V86.31
			l-0.01,0.006c-0.005,0.003-0.009,0.005-0.014,0.007l-2.772,1.54l0,0c0.18-0.103,0.411-0.117,0.615,0.001l27.214,15.809
			c0.36,0.208,0.633,0.526,0.787,0.899l2.756-1.591C231.656,102.628,231.394,102.327,231.049,102.128z"/>
		<path style="opacity:0.2;fill:#FFFFFF;" d="M231.956,110.795l0.02-7.057c0.001-0.266-0.058-0.523-0.163-0.759l-2.756,1.591
			c0.092,0.222,0.141,0.464,0.14,0.712l-0.02,7.057L231.956,110.795L231.956,110.795z"/>
		<path style="opacity:0.3;fill:#FFFFFF;" d="M238.525,117.587l-6.569-6.792l-2.779,1.545l0,0l6.569,6.792
			c0.508,0.526,0.625,1.281,0.354,1.572l2.62-1.444C239.177,119.116,239.114,118.197,238.525,117.587z"/>
		<g>
			<path style="fill:#FFFFFF;" d="M210.935,98.789c-1.068-0.617-2.137-0.765-2.954-0.3c-1.64,0.927-1.648,3.964-0.019,6.779
				l0.948,1.65l5.88,10.185l5.925-3.369l0.954-0.551c1.64-0.927,1.648-3.965,0.019-6.779c-0.811-1.405-1.878-2.49-2.946-3.106
				c-1.068-0.617-2.137-0.765-2.954-0.3l-0.961,0.54l-0.948-1.642C213.069,100.49,212.002,99.406,210.935,98.789z"/>
		</g>
	</g>
</g>
</svg>
